<svg width="64" height="64" viewBox="0 0 64 64" fill="none" xmlns="http://www.w3.org/2000/svg">
<g clip-path="url(#clip0_2185_12463)">
<path fill-rule="evenodd" clip-rule="evenodd" d="M0 5.33334C0 2.38782 2.38781 0 5.33333 0H58.6667C61.6122 0 64 2.38781 64 5.33333V20.3596C64 31.9845 58.9428 43.0343 50.1448 50.6325L35.7096 63.0993C35.0368 63.6803 34.1776 64 33.2887 64C32.4541 64 31.644 63.7182 30.9896 63.2001L15.1719 50.6777C5.58854 43.0909 0 31.5388 0 19.3159V5.33334ZM34.6667 26.6667H29.3333C22.6667 26.6667 18.6667 30.6667 18.6667 34.6667V42.6667H24V34.6667H26.6667V42.6667H37.3333V34.6667H40V42.6667H45.3328L45.3333 34.6667C45.3328 30.6667 41.3333 26.6667 34.6667 26.6667ZM32 24C36.4183 24 40 20.4183 40 16C40 11.5817 36.4183 8 32 8C27.5817 8 24 11.5817 24 16C24 20.4183 27.5817 24 32 24Z" fill="#C3C7C6"/>
</g>
<defs>
<clipPath id="clip0_2185_12463">
<rect width="64" height="64" fill="white"/>
</clipPath>
</defs>
</svg>
