<svg width="64" height="64" viewBox="0 0 64 64" fill="none" xmlns="http://www.w3.org/2000/svg">
<g clip-path="url(#clip0_2185_12469)">
<path d="M0 2.66702H64.0081V13.335H56.0071V8.00103H50.673V13.335H45.339V8.00103H40.005V13.335H34.671V8.00103H29.337V13.335H24.003V8.00103H18.669V13.335H13.335V8.00103H8.00101V13.335H0V2.66702Z" fill="#C3C7C6"/>
<path d="M0 61.3373H64.0081V50.6693H56.0071V56.0033H50.673V50.6693H45.339V56.0033H40.005V50.6693H34.671V56.0033H29.337V50.6693H24.003V56.0033H18.669V50.6693H13.335V56.0033H8.00101V50.6693H0V61.3373Z" fill="#C3C7C6"/>
<path fill-rule="evenodd" clip-rule="evenodd" d="M5.33594 48.0024L42.6717 16.0004H58.6727L21.337 48.0024H5.33594Z" fill="#C3C7C6"/>
</g>
<defs>
<clipPath id="clip0_2185_12469">
<rect width="64.0042" height="64.0042" fill="white"/>
</clipPath>
</defs>
</svg>
