<svg width="64" height="64" viewBox="0 0 64 64" fill="none" xmlns="http://www.w3.org/2000/svg">
<g clip-path="url(#clip0_2185_12331)">
<path fill-rule="evenodd" clip-rule="evenodd" d="M16 5.33331H0V58.6666H16V5.33331ZM13.3333 10.6667H2.66667V21.3333H13.3333V10.6667ZM2.66667 26.6667H13.3333V29.3333H2.66667V26.6667ZM13.3333 50.6667H2.66667V53.3333H13.3333V50.6667Z" fill="#C3C7C6"/>
<path fill-rule="evenodd" clip-rule="evenodd" d="M40 5.33331H24V58.6666H40V5.33331ZM37.3333 10.6667H26.6667V21.3333H37.3333V10.6667ZM26.6667 26.6667H37.3333V29.3333H26.6667V26.6667ZM37.3333 50.6667H26.6667V53.3333H37.3333V50.6667Z" fill="#C3C7C6"/>
<path fill-rule="evenodd" clip-rule="evenodd" d="M64 5.33331H48V58.6666H64V5.33331ZM61.3333 10.6667H50.6667V21.3333H61.3333V10.6667ZM50.6667 26.6667H61.3333V29.3333H50.6667V26.6667ZM61.3333 50.6667H50.6667V53.3333H61.3333V50.6667Z" fill="#C3C7C6"/>
</g>
<defs>
<clipPath id="clip0_2185_12331">
<rect width="64" height="64" fill="white"/>
</clipPath>
</defs>
</svg>
