<svg width="64" height="64" viewBox="0 0 64 64" fill="none" xmlns="http://www.w3.org/2000/svg">
<path d="M0 5.33331H18.6667V16H29.3333V26.6666H0V5.33331Z" fill="#C3C7C6"/>
<path d="M21.3335 13.3333L21.3335 5.33331L29.3335 13.3333L21.3335 13.3333Z" fill="#C3C7C6"/>
<path d="M34.6665 32H53.3332V42.6667H63.9998V53.3333H34.6665V32Z" fill="#C3C7C6"/>
<path d="M56 40L56 32L64 40L56 40Z" fill="#C3C7C6"/>
<path d="M13.9525 50.0474C16.556 52.6509 20.7771 52.6509 23.3805 50.0474C25.984 47.4439 25.984 43.2228 23.3805 40.6193C20.7771 38.0158 16.556 38.0158 13.9525 40.6193C11.349 43.2228 11.349 47.4439 13.9525 50.0474Z" stroke="#C3C7C6" stroke-width="2.66667"/>
<path d="M15.9985 50.667L13.3319 48.0003L7.99853 53.3336L10.6652 56.0003L15.9985 50.667Z" fill="#C3C7C6"/>
<path d="M11.9985 56.0003L7.99853 52.0003L-0.00146532 60.0003L3.99853 64.0003L11.9985 56.0003Z" fill="#C3C7C6"/>
</svg>
