<svg width="64" height="64" viewBox="0 0 64 64" fill="none" xmlns="http://www.w3.org/2000/svg">
<g clip-path="url(#clip0_2185_12475)">
<mask id="mask0_2185_12475" style="mask-type:alpha" maskUnits="userSpaceOnUse" x="0" y="0" width="64" height="64">
<path fill-rule="evenodd" clip-rule="evenodd" d="M64 0H0V37.3333H26.6667V64L64 64V0Z" fill="#D9D9D9"/>
</mask>
<g mask="url(#mask0_2185_12475)">
<rect width="5.33333" height="64" fill="#C3C7C6"/>
<rect x="34.6665" y="13.3333" width="2.66667" height="29.3333" transform="rotate(90 34.6665 13.3333)" fill="#C3C7C6"/>
<rect x="34.6665" y="50.6667" width="2.66667" height="29.3333" transform="rotate(90 34.6665 50.6667)" fill="#C3C7C6"/>
<path d="M39.621 10.6667H60.8915C61.7087 10.6667 62.3336 11.3951 62.2094 12.2028L60.3632 24.2028C60.2631 24.8532 59.7035 25.3333 59.0454 25.3333H37.7748C36.9576 25.3333 36.3327 24.6049 36.457 23.7973L38.3031 11.7973C38.4032 11.1468 38.9629 10.6667 39.621 10.6667Z" stroke="#C3C7C6" stroke-width="2.66667"/>
<path d="M42.6667 25.3333H38.6667C37.1939 25.3333 36 24.1394 36 22.6667V6.66666H47.3333H56C57.4728 6.66666 58.6667 7.86056 58.6667 9.33332V12" stroke="#C3C7C6" stroke-width="2.66667"/>
<path d="M36 5.33333V5.33333C36 4.59695 36.597 4 37.3333 4H41.3333C42.0697 4 42.6667 4.59695 42.6667 5.33333V5.33333" stroke="#C3C7C6" stroke-width="2.66667"/>
<rect x="37.3335" y="5.33334" width="5.33333" height="2.66667" fill="#C3C7C6"/>
<rect x="37.3335" y="8" width="21.3333" height="2.66667" fill="#C3C7C6"/>
<path d="M39.621 45.3333H60.8915C61.7087 45.3333 62.3336 46.0617 62.2094 46.8694L60.3632 58.8694C60.2631 59.5199 59.7035 60 59.0454 60H37.7748C36.9576 60 36.3327 59.2716 36.457 58.4639L38.3031 46.4639C38.4032 45.8135 38.9629 45.3333 39.621 45.3333Z" stroke="#C3C7C6" stroke-width="2.66667"/>
<path d="M42.6667 60H38.6667C37.1939 60 36 58.8061 36 57.3333V41.3333H47.3333H56C57.4728 41.3333 58.6667 42.5273 58.6667 44V46.6667" stroke="#C3C7C6" stroke-width="2.66667"/>
<path d="M36 40V40C36 39.2636 36.597 38.6667 37.3333 38.6667H41.3333C42.0697 38.6667 42.6667 39.2636 42.6667 40V40" stroke="#C3C7C6" stroke-width="2.66667"/>
<rect x="37.3335" y="40" width="5.33333" height="2.66667" fill="#C3C7C6"/>
<rect x="37.3335" y="42.6667" width="21.3333" height="2.66667" fill="#C3C7C6"/>
</g>
<rect x="5.3335" y="45.3333" width="18.6667" height="18.6667" fill="#C3C7C6"/>
<path fill-rule="evenodd" clip-rule="evenodd" d="M18.6667 40H0V58.6667H2.66667V42.6667H18.6667V40Z" fill="#C3C7C6"/>
</g>
<defs>
<clipPath id="clip0_2185_12475">
<rect width="64" height="64" fill="white"/>
</clipPath>
</defs>
</svg>
