<svg width="64" height="64" viewBox="0 0 64 64" fill="none" xmlns="http://www.w3.org/2000/svg">
<g clip-path="url(#clip0_2183_11983)">
<path d="M0 64C0 49.2724 11.9391 37.3333 26.6667 37.3333H37.3333C52.0609 37.3333 64 49.2724 64 64V64H50.6667V56H45.3333V64H18.6667V56H13.3333V64H0V64Z" fill="#C3C7C6"/>
<path fill-rule="evenodd" clip-rule="evenodd" d="M16.2212 18.6667C17.4908 26.2339 24.072 32 32 32C39.928 32 46.5092 26.2339 47.7788 18.6667H16.2212ZM34.6667 0.221223C33.7994 0.0757302 32.9086 0 32 0C31.0914 0 30.2006 0.0757301 29.3333 0.221222L29.3333 13.3333H24L24 2.14052C19.2176 4.90699 16 10.0777 16 16H48C48 10.0777 44.7824 4.90699 40 2.14052V13.3333H34.6667V0.221223Z" fill="#C3C7C6"/>
<rect x="13.3335" y="13.3333" width="37.3333" height="2.66667" fill="#C3C7C6"/>
</g>
<defs>
<clipPath id="clip0_2183_11983">
<rect width="64" height="64" fill="white"/>
</clipPath>
</defs>
</svg>
