<svg width="64" height="64" viewBox="0 0 64 64" fill="none" xmlns="http://www.w3.org/2000/svg">
<rect width="10.6667" height="21.3333" transform="matrix(-1 0 0 1 24 37.3333)" fill="#C3C7C6"/>
<rect width="5.33333" height="32" transform="matrix(-1 0 0 1 21.333 5.33334)" fill="#C3C7C6"/>
<rect width="10.6667" height="10.6667" transform="matrix(-1 0 0 1 21.333 8)" fill="#C3C7C6"/>
<path d="M34.6661 21.3333C29.3327 17.3333 21.3327 18.6666 21.3327 18.6666V7.99996C21.3327 7.99996 30.6661 9.33329 34.6661 16C38.6661 22.6666 34.6661 21.3333 34.6661 21.3333Z" fill="#C3C7C6"/>
<rect width="10.6667" height="16" transform="matrix(-1 0 0 1 10.6665 5.33334)" fill="#C3C7C6"/>
<path fill-rule="evenodd" clip-rule="evenodd" d="M48.0002 42.6667H53.3335L56.0002 5.33334H45.3335L48.0002 42.6667ZM50.6668 13.3333C52.1396 13.3333 53.3335 12.1394 53.3335 10.6667C53.3335 9.19392 52.1396 8.00001 50.6668 8.00001C49.1941 8.00001 48.0002 9.19392 48.0002 10.6667C48.0002 12.1394 49.1941 13.3333 50.6668 13.3333Z" fill="#C3C7C6"/>
<path fill-rule="evenodd" clip-rule="evenodd" d="M56.0002 57.5572C60.7092 55.4997 64.0002 50.8008 64.0002 45.3333C64.0002 37.9695 58.0306 32 50.6668 32C43.303 32 37.3335 37.9695 37.3335 45.3333C37.3335 50.8009 40.6244 55.4997 45.3335 57.5572V42.6667H56.0002V57.5572Z" fill="#C3C7C6"/>
</svg>
