<svg width="64" height="64" viewBox="0 0 64 64" fill="none" xmlns="http://www.w3.org/2000/svg">
<mask id="path-1-inside-1_2185_12515" fill="white">
<path fill-rule="evenodd" clip-rule="evenodd" d="M64 5.33334H0V21.3333H64V5.33334ZM58.6667 10.6667H53.3333V16H58.6667V10.6667ZM42.6667 10.6667H48V16H42.6667V10.6667ZM37.3333 10.6667H32V16H37.3333V10.6667Z"/>
</mask>
<path fill-rule="evenodd" clip-rule="evenodd" d="M64 5.33334H0V21.3333H64V5.33334ZM58.6667 10.6667H53.3333V16H58.6667V10.6667ZM42.6667 10.6667H48V16H42.6667V10.6667ZM37.3333 10.6667H32V16H37.3333V10.6667Z" fill="#C3C7C6"/>
<path d="M0 5.33334V2.66668H-2.66667V5.33334H0ZM64 5.33334H66.6667V2.66668H64V5.33334ZM0 21.3333H-2.66667V24H0V21.3333ZM64 21.3333V24H66.6667V21.3333H64ZM53.3333 10.6667V8.00001H50.6667V10.6667H53.3333ZM58.6667 10.6667H61.3333V8.00001H58.6667V10.6667ZM53.3333 16H50.6667V18.6667H53.3333V16ZM58.6667 16V18.6667H61.3333V16H58.6667ZM48 10.6667H50.6667V8.00001H48V10.6667ZM42.6667 10.6667V8.00001H40V10.6667H42.6667ZM48 16V18.6667H50.6667V16H48ZM42.6667 16H40V18.6667H42.6667V16ZM32 10.6667V8.00001H29.3333V10.6667H32ZM37.3333 10.6667H40V8.00001H37.3333V10.6667ZM32 16H29.3333V18.6667H32V16ZM37.3333 16V18.6667H40V16H37.3333ZM0 8.00001H64V2.66668H0V8.00001ZM2.66667 21.3333V5.33334H-2.66667V21.3333H2.66667ZM64 18.6667H0V24H64V18.6667ZM61.3333 5.33334V21.3333H66.6667V5.33334H61.3333ZM53.3333 13.3333H58.6667V8.00001H53.3333V13.3333ZM56 16V10.6667H50.6667V16H56ZM58.6667 13.3333H53.3333V18.6667H58.6667V13.3333ZM56 10.6667V16H61.3333V10.6667H56ZM48 8.00001H42.6667V13.3333H48V8.00001ZM50.6667 16V10.6667H45.3333V16H50.6667ZM42.6667 18.6667H48V13.3333H42.6667V18.6667ZM40 10.6667V16H45.3333V10.6667H40ZM32 13.3333H37.3333V8.00001H32V13.3333ZM34.6667 16V10.6667H29.3333V16H34.6667ZM37.3333 13.3333H32V18.6667H37.3333V13.3333ZM34.6667 10.6667V16H40V10.6667H34.6667Z" fill="#C3C7C6" mask="url(#path-1-inside-1_2185_12515)"/>
<mask id="path-3-inside-2_2185_12515" fill="white">
<path fill-rule="evenodd" clip-rule="evenodd" d="M64 24H0V40H64V24ZM58.6667 29.3333H53.3333V34.6667H58.6667V29.3333ZM42.6667 29.3333H48V34.6667H42.6667V29.3333ZM37.3333 29.3333H32V34.6667H37.3333V29.3333Z"/>
</mask>
<path fill-rule="evenodd" clip-rule="evenodd" d="M64 24H0V40H64V24ZM58.6667 29.3333H53.3333V34.6667H58.6667V29.3333ZM42.6667 29.3333H48V34.6667H42.6667V29.3333ZM37.3333 29.3333H32V34.6667H37.3333V29.3333Z" fill="#C3C7C6"/>
<path d="M0 24V21.3333H-2.66667V24H0ZM64 24H66.6667V21.3333H64V24ZM0 40H-2.66667V42.6667H0V40ZM64 40V42.6667H66.6667V40H64ZM53.3333 29.3333V26.6667H50.6667V29.3333H53.3333ZM58.6667 29.3333H61.3333V26.6667H58.6667V29.3333ZM53.3333 34.6667H50.6667V37.3333H53.3333V34.6667ZM58.6667 34.6667V37.3333H61.3333V34.6667H58.6667ZM48 29.3333H50.6667V26.6667H48V29.3333ZM42.6667 29.3333V26.6667H40V29.3333H42.6667ZM48 34.6667V37.3333H50.6667V34.6667H48ZM42.6667 34.6667H40V37.3333H42.6667V34.6667ZM32 29.3333V26.6667H29.3333V29.3333H32ZM37.3333 29.3333H40V26.6667H37.3333V29.3333ZM32 34.6667H29.3333V37.3333H32V34.6667ZM37.3333 34.6667V37.3333H40V34.6667H37.3333ZM0 26.6667H64V21.3333H0V26.6667ZM2.66667 40V24H-2.66667V40H2.66667ZM64 37.3333H0V42.6667H64V37.3333ZM61.3333 24V40H66.6667V24H61.3333ZM53.3333 32H58.6667V26.6667H53.3333V32ZM56 34.6667V29.3333H50.6667V34.6667H56ZM58.6667 32H53.3333V37.3333H58.6667V32ZM56 29.3333V34.6667H61.3333V29.3333H56ZM48 26.6667H42.6667V32H48V26.6667ZM50.6667 34.6667V29.3333H45.3333V34.6667H50.6667ZM42.6667 37.3333H48V32H42.6667V37.3333ZM40 29.3333V34.6667H45.3333V29.3333H40ZM32 32H37.3333V26.6667H32V32ZM34.6667 34.6667V29.3333H29.3333V34.6667H34.6667ZM37.3333 32H32V37.3333H37.3333V32ZM34.6667 29.3333V34.6667H40V29.3333H34.6667Z" fill="#C3C7C6" mask="url(#path-3-inside-2_2185_12515)"/>
<mask id="path-5-inside-3_2185_12515" fill="white">
<path fill-rule="evenodd" clip-rule="evenodd" d="M64 42.6667H0V58.6667H64V42.6667ZM58.6667 48H53.3333V53.3333H58.6667V48ZM42.6667 48H48V53.3333H42.6667V48ZM37.3333 48H32V53.3333H37.3333V48Z"/>
</mask>
<path fill-rule="evenodd" clip-rule="evenodd" d="M64 42.6667H0V58.6667H64V42.6667ZM58.6667 48H53.3333V53.3333H58.6667V48ZM42.6667 48H48V53.3333H42.6667V48ZM37.3333 48H32V53.3333H37.3333V48Z" fill="#C3C7C6"/>
<path d="M0 42.6667V40H-2.66667V42.6667H0ZM64 42.6667H66.6667V40H64V42.6667ZM0 58.6667H-2.66667V61.3334H0V58.6667ZM64 58.6667V61.3334H66.6667V58.6667H64ZM53.3333 48V45.3333H50.6667V48H53.3333ZM58.6667 48H61.3333V45.3333H58.6667V48ZM53.3333 53.3333H50.6667V56H53.3333V53.3333ZM58.6667 53.3333V56H61.3333V53.3333H58.6667ZM48 48H50.6667V45.3333H48V48ZM42.6667 48V45.3333H40V48H42.6667ZM48 53.3333V56H50.6667V53.3333H48ZM42.6667 53.3333H40V56H42.6667V53.3333ZM32 48V45.3333H29.3333V48H32ZM37.3333 48H40V45.3333H37.3333V48ZM32 53.3333H29.3333V56H32V53.3333ZM37.3333 53.3333V56H40V53.3333H37.3333ZM0 45.3334H64V40H0V45.3334ZM2.66667 58.6667V42.6667H-2.66667V58.6667H2.66667ZM64 56H0V61.3334H64V56ZM61.3333 42.6667V58.6667H66.6667V42.6667H61.3333ZM53.3333 50.6667H58.6667V45.3333H53.3333V50.6667ZM56 53.3333V48H50.6667V53.3333H56ZM58.6667 50.6667H53.3333V56H58.6667V50.6667ZM56 48V53.3333H61.3333V48H56ZM48 45.3333H42.6667V50.6667H48V45.3333ZM50.6667 53.3333V48H45.3333V53.3333H50.6667ZM42.6667 56H48V50.6667H42.6667V56ZM40 48V53.3333H45.3333V48H40ZM32 50.6667H37.3333V45.3333H32V50.6667ZM34.6667 53.3333V48H29.3333V53.3333H34.6667ZM37.3333 50.6667H32V56H37.3333V50.6667ZM34.6667 48V53.3333H40V48H34.6667Z" fill="#C3C7C6" mask="url(#path-5-inside-3_2185_12515)"/>
</svg>
