<svg width="64" height="64" viewBox="0 0 64 64" fill="none" xmlns="http://www.w3.org/2000/svg">
<path fill-rule="evenodd" clip-rule="evenodd" d="M0 48H64V58.6667H0V48ZM10.6667 53.3333C10.6667 54.8061 9.47276 56 8 56C6.52724 56 5.33333 54.8061 5.33333 53.3333C5.33333 51.8606 6.52724 50.6667 8 50.6667C9.47276 50.6667 10.6667 51.8606 10.6667 53.3333ZM24 56C25.4728 56 26.6667 54.8061 26.6667 53.3333C26.6667 51.8606 25.4728 50.6667 24 50.6667C22.5272 50.6667 21.3333 51.8606 21.3333 53.3333C21.3333 54.8061 22.5272 56 24 56ZM42.6667 53.3333C42.6667 54.8061 41.4728 56 40 56C38.5272 56 37.3333 54.8061 37.3333 53.3333C37.3333 51.8606 38.5272 50.6667 40 50.6667C41.4728 50.6667 42.6667 51.8606 42.6667 53.3333ZM56 56C57.4728 56 58.6667 54.8061 58.6667 53.3333C58.6667 51.8606 57.4728 50.6667 56 50.6667C54.5272 50.6667 53.3333 51.8606 53.3333 53.3333C53.3333 54.8061 54.5272 56 56 56Z" fill="#C3C7C6"/>
<rect x="40" y="26.6667" width="18.6667" height="18.6667" fill="#C3C7C6"/>
<rect x="2.6665" y="26.6667" width="18.6667" height="18.6667" fill="#C3C7C6"/>
<rect x="45.3335" width="8" height="10.6667" fill="#C3C7C6"/>
<rect x="48" y="10.6667" width="2.66667" height="10.6667" fill="#C3C7C6"/>
<rect x="34.6665" y="18.6667" width="2.66667" height="10.6667" fill="#C3C7C6"/>
<rect x="61.3335" y="21.3333" width="2.66667" height="10.6667" fill="#C3C7C6"/>
<rect x="64" y="16" width="5.33333" height="29.3333" transform="rotate(90 64 16)" fill="#C3C7C6"/>
</svg>
