<svg width="64" height="64" viewBox="0 0 64 64" fill="none" xmlns="http://www.w3.org/2000/svg">
<path d="M50.6663 58.2235L39.9997 51.8235V41.5098L50.6663 35.1098L61.333 41.5098V51.8235L50.6663 58.2235Z" stroke="#C3C7C6" stroke-width="5.33333"/>
<path d="M37.333 53.3333L50.6663 61.3333L63.9997 53.3333V40L50.6663 32L37.333 40V53.3333Z" fill="#C3C7C6"/>
<path d="M31.9998 28.8901L21.3332 22.4901V12.1765L31.9998 5.77647L42.6665 12.1765V22.4901L31.9998 28.8901Z" stroke="#C3C7C6" stroke-width="5.33333"/>
<path d="M18.6665 24L31.9998 32L45.3332 24V10.6666L31.9998 2.66663L18.6665 10.6666V24Z" fill="#C3C7C6"/>
<path d="M0 50.6666H10.6667V53.3333H16V50.6666H26.6667V64H0V50.6666Z" fill="#C3C7C6"/>
<rect y="42.6666" width="26.6667" height="5.33333" fill="#C3C7C6"/>
<rect x="8" y="37.3333" width="10.6667" height="2.66667" fill="#C3C7C6"/>
<rect x="16" y="37.3333" width="2.66667" height="5.33333" fill="#C3C7C6"/>
<rect x="8" y="37.3333" width="2.66667" height="5.33333" fill="#C3C7C6"/>
</svg>
