<svg width="64" height="64" viewBox="0 0 64 64" fill="none" xmlns="http://www.w3.org/2000/svg">
<g clip-path="url(#clip0_2185_12389)">
<path fill-rule="evenodd" clip-rule="evenodd" d="M21.3333 5.33331H0V42.6666H21.3333V5.33331ZM13.3335 10.6667H8.00016V16H2.66683V21.3333H8.00016V32H2.66683V37.3333H18.6668V32H13.3335V10.6667Z" fill="#C3C7C6"/>
<path fill-rule="evenodd" clip-rule="evenodd" d="M42.6668 21.3333H21.3335V58.6666H42.6668V21.3333ZM24.0003 40V42.6667V48V50.6667V53.3333H40.0003V48H29.3337V42.6667H40.0003V40V37.3333V26.6667H40.0002V26.6666H24.0002V32H34.667V37.3333H24.0003V40Z" fill="#C3C7C6"/>
<path fill-rule="evenodd" clip-rule="evenodd" d="M42.6665 5.33331H63.9998V42.6666H42.6665V5.33331ZM45.3332 16H56V21.3333H45.3333V26.6667H56V32H45.3333V37.3333H61.3333V34.6667V32V10.6667H58.6665V10.6666H45.3332V16Z" fill="#C3C7C6"/>
</g>
<defs>
<clipPath id="clip0_2185_12389">
<rect width="64" height="64" fill="white"/>
</clipPath>
</defs>
</svg>
