<svg width="24" height="24" viewBox="0 0 24 24" fill="none" xmlns="http://www.w3.org/2000/svg">
<path d="M0 2H7V6H11V10H0V2Z" fill="#FCFCFC"/>
<path d="M8 5L8 2L11 5L8 5Z" fill="#FCFCFC"/>
<path d="M13 12H20V16H24V20H13V12Z" fill="#FCFCFC"/>
<path d="M21 15L21 12L24 15L21 15Z" fill="#FCFCFC"/>
<path d="M5.23223 18.7678C6.20854 19.7441 7.79146 19.7441 8.76777 18.7678C9.74408 17.7915 9.74408 16.2085 8.76777 15.2322C7.79146 14.2559 6.20854 14.2559 5.23223 15.2322C4.25592 16.2085 4.25592 17.7915 5.23223 18.7678Z" stroke="#FCFCFC"/>
<path d="M5.99951 19.0001L4.99951 18.0001L2.99951 20.0001L3.99951 21.0001L5.99951 19.0001Z" fill="#FCFCFC"/>
<path d="M4.49951 21.0001L2.99951 19.5001L-0.000488281 22.5001L1.49951 24.0001L4.49951 21.0001Z" fill="#FCFCFC"/>
</svg>
