<svg width="24" height="24" viewBox="0 0 24 24" fill="none" xmlns="http://www.w3.org/2000/svg">
<mask id="path-1-inside-1_2183_12212" fill="white">
<path fill-rule="evenodd" clip-rule="evenodd" d="M24 2H0V8H24V2ZM22 4H20V6H22V4ZM16 4H18V6H16V4ZM14 4H12V6H14V4Z"/>
</mask>
<path fill-rule="evenodd" clip-rule="evenodd" d="M24 2H0V8H24V2ZM22 4H20V6H22V4ZM16 4H18V6H16V4ZM14 4H12V6H14V4Z" fill="#FCFCFC"/>
<path d="M0 2V1H-1V2H0ZM24 2H25V1H24V2ZM0 8H-1V9H0V8ZM24 8V9H25V8H24ZM20 4V3H19V4H20ZM22 4H23V3H22V4ZM20 6H19V7H20V6ZM22 6V7H23V6H22ZM18 4H19V3H18V4ZM16 4V3H15V4H16ZM18 6V7H19V6H18ZM16 6H15V7H16V6ZM12 4V3H11V4H12ZM14 4H15V3H14V4ZM12 6H11V7H12V6ZM14 6V7H15V6H14ZM0 3H24V1H0V3ZM1 8V2H-1V8H1ZM24 7H0V9H24V7ZM23 2V8H25V2H23ZM20 5H22V3H20V5ZM21 6V4H19V6H21ZM22 5H20V7H22V5ZM21 4V6H23V4H21ZM18 3H16V5H18V3ZM19 6V4H17V6H19ZM16 7H18V5H16V7ZM15 4V6H17V4H15ZM12 5H14V3H12V5ZM13 6V4H11V6H13ZM14 5H12V7H14V5ZM13 4V6H15V4H13Z" fill="#FCFCFC" mask="url(#path-1-inside-1_2183_12212)"/>
<mask id="path-3-inside-2_2183_12212" fill="white">
<path fill-rule="evenodd" clip-rule="evenodd" d="M24 9H0V15H24V9ZM22 11H20V13H22V11ZM16 11H18V13H16V11ZM14 11H12V13H14V11Z"/>
</mask>
<path fill-rule="evenodd" clip-rule="evenodd" d="M24 9H0V15H24V9ZM22 11H20V13H22V11ZM16 11H18V13H16V11ZM14 11H12V13H14V11Z" fill="#FCFCFC"/>
<path d="M0 9V8H-1V9H0ZM24 9H25V8H24V9ZM0 15H-1V16H0V15ZM24 15V16H25V15H24ZM20 11V10H19V11H20ZM22 11H23V10H22V11ZM20 13H19V14H20V13ZM22 13V14H23V13H22ZM18 11H19V10H18V11ZM16 11V10H15V11H16ZM18 13V14H19V13H18ZM16 13H15V14H16V13ZM12 11V10H11V11H12ZM14 11H15V10H14V11ZM12 13H11V14H12V13ZM14 13V14H15V13H14ZM0 10H24V8H0V10ZM1 15V9H-1V15H1ZM24 14H0V16H24V14ZM23 9V15H25V9H23ZM20 12H22V10H20V12ZM21 13V11H19V13H21ZM22 12H20V14H22V12ZM21 11V13H23V11H21ZM18 10H16V12H18V10ZM19 13V11H17V13H19ZM16 14H18V12H16V14ZM15 11V13H17V11H15ZM12 12H14V10H12V12ZM13 13V11H11V13H13ZM14 12H12V14H14V12ZM13 11V13H15V11H13Z" fill="#FCFCFC" mask="url(#path-3-inside-2_2183_12212)"/>
<mask id="path-5-inside-3_2183_12212" fill="white">
<path fill-rule="evenodd" clip-rule="evenodd" d="M24 16H0V22H24V16ZM22 18H20V20H22V18ZM16 18H18V20H16V18ZM14 18H12V20H14V18Z"/>
</mask>
<path fill-rule="evenodd" clip-rule="evenodd" d="M24 16H0V22H24V16ZM22 18H20V20H22V18ZM16 18H18V20H16V18ZM14 18H12V20H14V18Z" fill="#FCFCFC"/>
<path d="M0 16V15H-1V16H0ZM24 16H25V15H24V16ZM0 22H-1V23H0V22ZM24 22V23H25V22H24ZM20 18V17H19V18H20ZM22 18H23V17H22V18ZM20 20H19V21H20V20ZM22 20V21H23V20H22ZM18 18H19V17H18V18ZM16 18V17H15V18H16ZM18 20V21H19V20H18ZM16 20H15V21H16V20ZM12 18V17H11V18H12ZM14 18H15V17H14V18ZM12 20H11V21H12V20ZM14 20V21H15V20H14ZM0 17H24V15H0V17ZM1 22V16H-1V22H1ZM24 21H0V23H24V21ZM23 16V22H25V16H23ZM20 19H22V17H20V19ZM21 20V18H19V20H21ZM22 19H20V21H22V19ZM21 18V20H23V18H21ZM18 17H16V19H18V17ZM19 20V18H17V20H19ZM16 21H18V19H16V21ZM15 18V20H17V18H15ZM12 19H14V17H12V19ZM13 20V18H11V20H13ZM14 19H12V21H14V19ZM13 18V20H15V18H13Z" fill="#FCFCFC" mask="url(#path-5-inside-3_2183_12212)"/>
</svg>
