<svg width="24" height="24" viewBox="0 0 24 24" fill="none" xmlns="http://www.w3.org/2000/svg">
<path fill-rule="evenodd" clip-rule="evenodd" d="M0 18H24V22H0V18ZM4 20C4 20.5523 3.55228 21 3 21C2.44772 21 2 20.5523 2 20C2 19.4477 2.44772 19 3 19C3.55228 19 4 19.4477 4 20ZM9 21C9.55229 21 10 20.5523 10 20C10 19.4477 9.55229 19 9 19C8.44771 19 8 19.4477 8 20C8 20.5523 8.44771 21 9 21ZM16 20C16 20.5523 15.5523 21 15 21C14.4477 21 14 20.5523 14 20C14 19.4477 14.4477 19 15 19C15.5523 19 16 19.4477 16 20ZM21 21C21.5523 21 22 20.5523 22 20C22 19.4477 21.5523 19 21 19C20.4477 19 20 19.4477 20 20C20 20.5523 20.4477 21 21 21Z" fill="#FCFCFC"/>
<rect x="15" y="10" width="7" height="7" fill="#FCFCFC"/>
<rect x="1" y="10" width="7" height="7" fill="#FCFCFC"/>
<rect x="17" width="3" height="4" fill="#FCFCFC"/>
<rect x="18" y="4" width="1" height="4" fill="#FCFCFC"/>
<rect x="13" y="7" width="1" height="4" fill="#FCFCFC"/>
<rect x="23" y="8" width="1" height="4" fill="#FCFCFC"/>
<rect x="24" y="6" width="2" height="11" transform="rotate(90 24 6)" fill="#FCFCFC"/>
</svg>
