<svg width="24" height="24" viewBox="0 0 24 24" fill="none" xmlns="http://www.w3.org/2000/svg">
<path d="M19 21.8338L15 19.4338V15.5662L19 13.1662L23 15.5662V19.4338L19 21.8338Z" stroke="#FCFCFC" stroke-width="2"/>
<path d="M14 20L19 23L24 20V15L19 12L14 15V20Z" fill="#FCFCFC"/>
<path d="M12 10.8338L8 8.43381V4.56619L12 2.16619L16 4.56619V8.43381L12 10.8338Z" stroke="#FCFCFC" stroke-width="2"/>
<path d="M7 9L12 12L17 9V4L12 1L7 4V9Z" fill="#FCFCFC"/>
<path d="M0 19H4V20H6V19H10V24H0V19Z" fill="#FCFCFC"/>
<rect y="16" width="10" height="2" fill="#FCFCFC"/>
<rect x="3" y="14" width="4" height="1" fill="#FCFCFC"/>
<rect x="6" y="14" width="1" height="2" fill="#FCFCFC"/>
<rect x="3" y="14" width="1" height="2" fill="#FCFCFC"/>
</svg>
