<svg width="24" height="24" viewBox="0 0 24 24" fill="none" xmlns="http://www.w3.org/2000/svg">
<path fill-rule="evenodd" clip-rule="evenodd" d="M8 2H0V16H8V2ZM5 4H3V6H1V8H3V12H1V14H7V12H5V4Z" fill="#FCFCFC"/>
<path fill-rule="evenodd" clip-rule="evenodd" d="M16 8H8V22H16V8ZM9 15V16V18V19V20H15V18H11V16H15V15V14V12V10H13H9V12H13V14H9V15Z" fill="#FCFCFC"/>
<path fill-rule="evenodd" clip-rule="evenodd" d="M16 2H24V16H16V2ZM22 4H23V12V13V14H17V12H21V10H17V8H21V6H17V4H21H22Z" fill="#FCFCFC"/>
</svg>
