<svg width="138" height="57" viewBox="0 0 138 57" fill="none" xmlns="http://www.w3.org/2000/svg">
<path d="M18.6 54.24C22.1733 54.24 25.0533 53.36 27.24 51.6C29.48 49.84 30.6 47.2533 30.6 43.84C30.6 41.12 29.7733 38.8533 28.12 37.04C26.4667 35.1733 23.5867 33.68 19.48 32.56L13.96 30.96C9.90667 29.84 6.81333 27.9467 4.68 25.28C2.54667 22.6133 1.48 19.36 1.48 15.52C1.48 12.96 2.06667 10.56 3.24 8.32C4.46667 6.08 6.30667 4.26667 8.76 2.88C11.2667 1.49333 14.44 0.799995 18.28 0.799995C22.5467 0.799995 25.9867 1.6 28.6 3.2C31.2133 4.74666 33.0267 6.77333 34.04 9.28C35.0533 11.7867 35.2933 14.48 34.76 17.36L28.04 18.8C28.7333 13.84 28.2267 10.0267 26.52 7.36C24.8667 4.69333 21.9867 3.36 17.88 3.36C14.6267 3.36 12.0667 4.24 10.2 6C8.33333 7.70666 7.4 10.2133 7.4 13.52C7.4 16.1333 8.14667 18.3733 9.64 20.24C11.1333 22.0533 13.7733 23.4933 17.56 24.56L23.08 26.16C31.9867 28.6133 36.44 33.8133 36.44 41.76C36.44 44.5867 35.7733 47.1467 34.44 49.44C33.16 51.68 31.1867 53.4667 28.52 54.8C25.9067 56.1333 22.6 56.8 18.6 56.8C15.8267 56.8 13.16 56.3733 10.6 55.52C8.09333 54.6667 5.93333 53.2 4.12 51.12C2.36 49.04 1.18667 46.16 0.6 42.48L5.4 40.88C5.66667 44.4 6.44 47.12 7.72 49.04C9 50.96 10.6 52.32 12.52 53.12C14.44 53.8667 16.4667 54.24 18.6 54.24ZM83.5556 7.6L68.0356 56H62.6756L47.0756 7.6C46.5956 6 46.2223 5.06666 45.9556 4.8C45.7423 4.48 45.209 4.26667 44.3556 4.16L40.3556 3.76V1.6H59.1556V3.76L55.0756 4.16C54.2223 4.26667 53.7423 4.48 53.6356 4.8C53.5823 5.12 53.7956 6.05333 54.2756 7.6L67.4756 49.04L80.6756 7.6C81.209 6.05333 81.4223 5.12 81.3156 4.8C81.2623 4.48 80.7823 4.26667 79.8756 4.16L75.7956 3.76V1.6H90.2756V3.76L86.1956 4.16C85.6623 4.21333 85.2623 4.32 84.9956 4.48C84.7823 4.58666 84.569 4.88 84.3556 5.36C84.1956 5.78667 83.929 6.53333 83.5556 7.6ZM117.463 33.52V31.36H137.863V33.52L133.463 33.92C132.61 34.0267 132.103 34.24 131.943 34.56C131.783 34.88 131.703 35.9733 131.703 37.84V56H129.783C128.77 54.4533 127.57 53.2267 126.183 52.32C124.636 53.7067 122.823 54.8 120.743 55.6C118.716 56.4 116.37 56.8 113.703 56.8C109.436 56.8 105.81 55.76 102.823 53.68C99.8365 51.5467 97.5431 48.5867 95.9431 44.8C94.3965 41.0133 93.6231 36.6133 93.6231 31.6V25.6C93.6231 20.6933 94.3965 16.3733 95.9431 12.64C97.5431 8.90666 99.8631 6 102.903 3.92C105.996 1.84 109.73 0.799995 114.103 0.799995C118.316 0.799995 121.783 1.6 124.503 3.2C127.276 4.74666 129.25 6.8 130.423 9.36C131.65 11.92 132.05 14.6667 131.623 17.6L124.743 19.28C125.33 14.16 124.69 10.24 122.823 7.52C120.956 4.74666 118.05 3.36 114.103 3.36C109.836 3.36 106.61 4.85333 104.423 7.84C102.29 10.8267 101.223 15.5733 101.223 22.08V35.44C101.223 41.9467 102.316 46.72 104.503 49.76C106.743 52.7467 110.023 54.24 114.343 54.24C116.53 54.24 118.556 53.84 120.423 53.04C122.343 52.24 123.943 50.96 125.223 49.2V37.84C125.223 35.9733 125.143 34.88 124.983 34.56C124.823 34.1867 124.316 33.9733 123.463 33.92L117.463 33.52Z" fill="#202121"/>
</svg>
